<?xml version="1.0" encoding="utf-8"?>
<!-- Generated by Mocodo 4.2.12 -->
<svg width="806" height="391" viewBox="0 0 806 391" xmlns="http://www.w3.org/2000/svg">
<rect x="0" y="0" width="806" height="391" fill="#ffffff" stroke="none" stroke-width="0"/>

<!-- Entity PAIEMENT -->
<g>
	<g>
		<rect x="41" y="26" width="150" height="25" fill="#f4a582" stroke="none" stroke-width="0" opacity="1"/>
		<rect x="41" y="51" width="150" height="77" fill="#fddbc7" stroke="none" stroke-width="0" opacity="1"/>
		<rect x="41" y="26" width="150" height="102" fill="none" stroke="#d6604d" stroke-width="2" opacity="1"/>
		<line x1="41" y1="51" x2="191" y2="51" stroke="#d6604d" stroke-width="1"/>
	</g>
	<text x="88" y="43.75" fill="#000000" font-family="Verdana" font-size="12">Paiement</text>
	<text x="46" y="68.8" fill="#000000" font-family="Verdana" font-size="12">id_Paiement</text>
	<line x1="46" y1="71" x2="121" y2="71" stroke="#000000" stroke-width="1"/>
	<text x="46" y="85.8" fill="#000000" font-family="Verdana" font-size="12">montant</text>
	<text x="46" y="102.8" fill="#000000" font-family="Verdana" font-size="12">date_paiement</text>
	<text x="46" y="119.8" fill="#000000" font-family="Verdana" font-size="12">mode_paiement_stripe</text>
</g>

<!-- Entity AVIS -->
<g>
	<g>
		<rect x="421" y="9" width="182" height="25" fill="#f4a582" stroke="none" stroke-width="0" opacity="1"/>
		<rect x="421" y="34" width="182" height="111" fill="#fddbc7" stroke="none" stroke-width="0" opacity="1"/>
		<rect x="421" y="9" width="182" height="136" fill="none" stroke="#d6604d" stroke-width="2" opacity="1"/>
		<line x1="421" y1="34" x2="603" y2="34" stroke="#d6604d" stroke-width="1"/>
	</g>
	<text x="499" y="26.75" fill="#000000" font-family="Verdana" font-size="12">Avis</text>
	<text x="426" y="51.8" fill="#000000" font-family="Verdana" font-size="12">id_Avis</text>
	<line x1="426" y1="54" x2="470" y2="54" stroke="#000000" stroke-width="1"/>
	<text x="426" y="68.8" fill="#000000" font-family="Verdana" font-size="12">note_étoiles_ou_score_sur5</text>
	<text x="426" y="85.8" fill="#000000" font-family="Verdana" font-size="12">commentaire</text>
	<text x="426" y="102.8" fill="#000000" font-family="Verdana" font-size="12">date_avis</text>
	<text x="426" y="119.8" fill="#000000" font-family="Verdana" font-size="12">auteur_avis</text>
	<text x="426" y="136.8" fill="#000000" font-family="Verdana" font-size="12">#id_Utilisateur</text>
</g>

<!-- Entity RESERVATION -->
<g>
	<g>
		<rect x="255" y="102" width="102" height="25" fill="#f4a582" stroke="none" stroke-width="0" opacity="1"/>
		<rect x="255" y="127" width="102" height="145" fill="#fddbc7" stroke="none" stroke-width="0" opacity="1"/>
		<rect x="255" y="102" width="102" height="170" fill="none" stroke="#d6604d" stroke-width="2" opacity="1"/>
		<line x1="255" y1="127" x2="357" y2="127" stroke="#d6604d" stroke-width="1"/>
	</g>
	<text x="270" y="119.75" fill="#000000" font-family="Verdana" font-size="12">Réservation</text>
	<text x="260" y="144.8" fill="#000000" font-family="Verdana" font-size="12">id_Réservation</text>
	<line x1="260" y1="147" x2="351" y2="147" stroke="#000000" stroke-width="1"/>
	<text x="260" y="161.8" fill="#000000" font-family="Verdana" font-size="12">date_début</text>
	<text x="260" y="178.8" fill="#000000" font-family="Verdana" font-size="12">date_fin</text>
	<text x="260" y="195.8" fill="#000000" font-family="Verdana" font-size="12">statut</text>
	<text x="260" y="212.8" fill="#000000" font-family="Verdana" font-size="12">#id_Paiement</text>
	<text x="260" y="229.8" fill="#000000" font-family="Verdana" font-size="12">#id_Service</text>
	<text x="260" y="246.8" fill="#000000" font-family="Verdana" font-size="12">#id_Utilisateur</text>
	<text x="260" y="263.8" fill="#000000" font-family="Verdana" font-size="12">#id_Animal</text>
</g>

<!-- Entity UTILISATEUR -->
<g>
	<g>
		<rect x="667" y="111" width="98" height="25" fill="#f4a582" stroke="none" stroke-width="0" opacity="1"/>
		<rect x="667" y="136" width="98" height="127" fill="#fddbc7" stroke="none" stroke-width="0" opacity="1"/>
		<rect x="667" y="111" width="98" height="152" fill="none" stroke="#d6604d" stroke-width="2" opacity="1"/>
		<line x1="667" y1="136" x2="765" y2="136" stroke="#d6604d" stroke-width="1"/>
	</g>
	<text x="685" y="128.75" fill="#000000" font-family="Verdana" font-size="12">Utilisateur</text>
	<text x="672" y="153.8" fill="#000000" font-family="Verdana" font-size="12">id_Utilisateur</text>
	<line x1="672" y1="156" x2="753" y2="156" stroke="#000000" stroke-width="1"/>
	<text x="672" y="170.8" fill="#000000" font-family="Verdana" font-size="12">nom</text>
	<text x="672" y="187.8" fill="#000000" font-family="Verdana" font-size="12">prenom</text>
	<text x="672" y="204.8" fill="#000000" font-family="Verdana" font-size="12">Email</text>
	<text x="672" y="221.8" fill="#000000" font-family="Verdana" font-size="12">Mot_de_passe</text>
	<text x="672" y="238.8" fill="#000000" font-family="Verdana" font-size="12">telephone</text>
	<text x="672" y="255.8" fill="#000000" font-family="Verdana" font-size="12">Adresse</text>
</g>

<!-- Entity SERVICE -->
<g>
	<g>
		<rect x="58" y="255" width="116" height="25" fill="#f4a582" stroke="none" stroke-width="0" opacity="1"/>
		<rect x="58" y="280" width="116" height="59" fill="#fddbc7" stroke="none" stroke-width="0" opacity="1"/>
		<rect x="58" y="255" width="116" height="84" fill="none" stroke="#d6604d" stroke-width="2" opacity="1"/>
		<line x1="58" y1="280" x2="174" y2="280" stroke="#d6604d" stroke-width="1"/>
	</g>
	<text x="94" y="272.75" fill="#000000" font-family="Verdana" font-size="12">Service</text>
	<text x="63" y="297.8" fill="#000000" font-family="Verdana" font-size="12">id_Service</text>
	<line x1="63" y1="300" x2="127" y2="300" stroke="#000000" stroke-width="1"/>
	<text x="63" y="314.8" fill="#000000" font-family="Verdana" font-size="12">type_Reservation</text>
	<text x="63" y="331.8" fill="#000000" font-family="Verdana" font-size="12">tarif</text>
</g>

<!-- Entity ANIMAL -->
<g>
	<g>
		<rect x="461" y="212" width="102" height="25" fill="#f4a582" stroke="none" stroke-width="0" opacity="1"/>
		<rect x="461" y="237" width="102" height="145" fill="#fddbc7" stroke="none" stroke-width="0" opacity="1"/>
		<rect x="461" y="212" width="102" height="170" fill="none" stroke="#d6604d" stroke-width="2" opacity="1"/>
		<line x1="461" y1="237" x2="563" y2="237" stroke="#d6604d" stroke-width="1"/>
	</g>
	<text x="491" y="229.75" fill="#000000" font-family="Verdana" font-size="12">Animal</text>
	<text x="466" y="254.8" fill="#000000" font-family="Verdana" font-size="12">id_Animal</text>
	<line x1="466" y1="257" x2="527" y2="257" stroke="#000000" stroke-width="1"/>
	<text x="466" y="271.8" fill="#000000" font-family="Verdana" font-size="12">nom</text>
	<text x="466" y="288.8" fill="#000000" font-family="Verdana" font-size="12">type</text>
	<text x="466" y="305.8" fill="#000000" font-family="Verdana" font-size="12">race</text>
	<text x="466" y="322.8" fill="#000000" font-family="Verdana" font-size="12">age</text>
	<text x="466" y="339.8" fill="#000000" font-family="Verdana" font-size="12">poids</text>
	<text x="466" y="356.8" fill="#000000" font-family="Verdana" font-size="12">reference</text>
	<text x="466" y="373.8" fill="#000000" font-family="Verdana" font-size="12">#id_Utilisateur</text>
</g>

<!-- Link from &quot;id_Utilisateur&quot; (AVIS) to &quot;id_Utilisateur&quot; (UTILISATEUR) -->
<path d="M603 132.5 C635 141 624.33 149.5 667 149.5" fill="none" stroke="#878787" stroke-width="2"/>
<polygon points="667 149.5 655 155.5 659 149.5 655 143.5" fill="#878787" stroke-width="0"/>
<circle cx="603" cy="132.5" r="2" stroke="#878787" stroke-width="2" fill="#878787"/>

<!-- Link from &quot;id_Paiement&quot; (RESERVATION) to &quot;id_Paiement&quot; (PAIEMENT) -->
<path d="M255 208.5 C223 136.5 233.67 64.5 191 64.5" fill="none" stroke="#878787" stroke-width="2"/>
<polygon points="191 64.5 203 58.5 199 64.5 203 70.5" fill="#878787" stroke-width="0"/>
<circle cx="255" cy="208.5" r="2" stroke="#878787" stroke-width="2" fill="#878787"/>

<!-- Link from &quot;id_Service&quot; (RESERVATION) to &quot;id_Service&quot; (SERVICE) -->
<path d="M255 225.5 C214.5 259.5 228 293.5 174 293.5" fill="none" stroke="#878787" stroke-width="2"/>
<polygon points="174 293.5 186 287.5 182 293.5 186 299.5" fill="#878787" stroke-width="0"/>
<circle cx="255" cy="225.5" r="2" stroke="#878787" stroke-width="2" fill="#878787"/>

<!-- Link from &quot;id_Utilisateur&quot; (RESERVATION) to &quot;id_Utilisateur&quot; (UTILISATEUR) -->
<path d="M357 242.5 C512 196 460.33 149.5 667 149.5" fill="none" stroke="#878787" stroke-width="2"/>
<polygon points="667 149.5 655 155.5 659 149.5 655 143.5" fill="#878787" stroke-width="0"/>
<circle cx="357" cy="242.5" r="2" stroke="#878787" stroke-width="2" fill="#878787"/>

<!-- Link from &quot;id_Animal&quot; (RESERVATION) to &quot;id_Animal&quot; (ANIMAL) -->
<path d="M357 259.5 C409 255 391.67 250.5 461 250.5" fill="none" stroke="#878787" stroke-width="2"/>
<polygon points="461 250.5 449 256.5 453 250.5 449 244.5" fill="#878787" stroke-width="0"/>
<circle cx="357" cy="259.5" r="2" stroke="#878787" stroke-width="2" fill="#878787"/>

<!-- Link from &quot;id_Utilisateur&quot; (ANIMAL) to &quot;id_Utilisateur&quot; (UTILISATEUR) -->
<path d="M563 369.5 C615 259.5 597.67 149.5 667 149.5" fill="none" stroke="#878787" stroke-width="2"/>
<polygon points="667 149.5 655 155.5 659 149.5 655 143.5" fill="#878787" stroke-width="0"/>
<circle cx="563" cy="369.5" r="2" stroke="#878787" stroke-width="2" fill="#878787"/>
</svg>