<?xml version="1.0" encoding="utf-8"?>
<!-- Generated by Mocodo 4.2.12 -->
<svg width="624" height="439" viewBox="0 0 624 439" xmlns="http://www.w3.org/2000/svg">
<rect x="0" y="0" width="624" height="439" fill="#ffffff" stroke="none" stroke-width="0"/>

<!-- Association EST_ASSOCIEE_A -->
<g>
	<line x1="245" y1="228" x2="245" y2="68" stroke="#878787" stroke-width="2"/>
	<line x1="84" y1="68" x2="245" y2="68" stroke="#878787" stroke-width="2"/>
	<g>
		<path d="M285 43 a14 14 90 0 1 14 14 V68 h-108 V57 a14 14 90 0 1 14 -14" fill="#bababa" stroke="#bababa" stroke-width="0"/>
		<path d="M299 68 v11 a14 14 90 0 1 -14 14 H205 a14 14 90 0 1 -14 -14 V68 H108" fill="#e0e0e0" stroke="#e0e0e0" stroke-width="0"/>
		<rect x="191" y="43" width="108" height="50" fill="none" rx="14" stroke="#878787" stroke-width="2"/>
		<line x1="191" y1="68" x2="299" y2="68" stroke="#878787" stroke-width="1"/>
		<text x="199" y="60.75" fill="#000000" font-family="Verdana" font-size="12">Est_associée_à</text>
	</g>
	<text x="250" y="169" fill="#b2182b" font-family="Verdana" font-size="12">1,1</text>
	<text x="164" y="85" fill="#b2182b" font-family="Verdana" font-size="12">1,1</text>
</g>

<!-- Association ECRIT -->
<g>
	<line x1="566" y1="228" x2="566" y2="68" stroke="#878787" stroke-width="2"/>
	<line x1="422" y1="68" x2="566" y2="68" stroke="#878787" stroke-width="2"/>
	<g>
		<path d="M573 43 a14 14 90 0 1 14 14 V68 h-42 V57 a14 14 90 0 1 14 -14" fill="#bababa" stroke="#bababa" stroke-width="0"/>
		<path d="M587 68 v11 a14 14 90 0 1 -14 14 H559 a14 14 90 0 1 -14 -14 V68 H42" fill="#e0e0e0" stroke="#e0e0e0" stroke-width="0"/>
		<rect x="545" y="43" width="42" height="50" fill="none" rx="14" stroke="#878787" stroke-width="2"/>
		<line x1="545" y1="68" x2="587" y2="68" stroke="#878787" stroke-width="1"/>
		<text x="552" y="60.75" fill="#000000" font-family="Verdana" font-size="12">Ecrit</text>
	</g>
	<text x="571" y="144" fill="#b2182b" font-family="Verdana" font-size="12">0,N</text>
	<text x="518" y="85" fill="#b2182b" font-family="Verdana" font-size="12">1,1</text>
</g>

<!-- Association CONCERNE -->
<g>
	<line x1="245" y1="228" x2="84" y2="228" stroke="#878787" stroke-width="2"/>
	<line x1="84" y1="354" x2="84" y2="228" stroke="#878787" stroke-width="2"/>
	<g>
		<path d="M106 203 a14 14 90 0 1 14 14 V228 h-72 V217 a14 14 90 0 1 14 -14" fill="#bababa" stroke="#bababa" stroke-width="0"/>
		<path d="M120 228 v11 a14 14 90 0 1 -14 14 H62 a14 14 90 0 1 -14 -14 V228 H72" fill="#e0e0e0" stroke="#e0e0e0" stroke-width="0"/>
		<rect x="48" y="203" width="72" height="50" fill="none" rx="14" stroke="#878787" stroke-width="2"/>
		<line x1="48" y1="228" x2="120" y2="228" stroke="#878787" stroke-width="1"/>
		<text x="55" y="220.75" fill="#000000" font-family="Verdana" font-size="12">Concerne</text>
	</g>
	<text x="168" y="245" fill="#b2182b" font-family="Verdana" font-size="12">1,1</text>
	<text x="89" y="304" fill="#b2182b" font-family="Verdana" font-size="12">0,N</text>
</g>

<!-- Association EFFECTUE -->
<g>
	<line x1="566" y1="228" x2="422" y2="228" stroke="#878787" stroke-width="2"/>
	<line x1="245" y1="228" x2="422" y2="228" stroke="#878787" stroke-width="2"/>
	<g>
		<path d="M440 203 a14 14 90 0 1 14 14 V228 h-64 V217 a14 14 90 0 1 14 -14" fill="#bababa" stroke="#bababa" stroke-width="0"/>
		<path d="M454 228 v11 a14 14 90 0 1 -14 14 H404 a14 14 90 0 1 -14 -14 V228 H64" fill="#e0e0e0" stroke="#e0e0e0" stroke-width="0"/>
		<rect x="390" y="203" width="64" height="50" fill="none" rx="14" stroke="#878787" stroke-width="2"/>
		<line x1="390" y1="228" x2="454" y2="228" stroke="#878787" stroke-width="1"/>
		<text x="397" y="220.75" fill="#000000" font-family="Verdana" font-size="12">Effectue</text>
	</g>
	<text x="490" y="245" fill="#b2182b" font-family="Verdana" font-size="12">0,N</text>
	<text x="301" y="245" fill="#b2182b" font-family="Verdana" font-size="12">1,1</text>
</g>

<!-- Association CONFIER -->
<g>
	<line x1="245" y1="228" x2="245" y2="354" stroke="#878787" stroke-width="2"/>
	<line x1="422" y1="354" x2="245" y2="354" stroke="#878787" stroke-width="2"/>
	<g>
		<path d="M260 329 a14 14 90 0 1 14 14 V354 h-58 V343 a14 14 90 0 1 14 -14" fill="#bababa" stroke="#bababa" stroke-width="0"/>
		<path d="M274 354 v11 a14 14 90 0 1 -14 14 H230 a14 14 90 0 1 -14 -14 V354 H58" fill="#e0e0e0" stroke="#e0e0e0" stroke-width="0"/>
		<rect x="216" y="329" width="58" height="50" fill="none" rx="14" stroke="#878787" stroke-width="2"/>
		<line x1="216" y1="354" x2="274" y2="354" stroke="#878787" stroke-width="1"/>
		<text x="223" y="346.75" fill="#000000" font-family="Verdana" font-size="12">Confier</text>
	</g>
	<text x="250" y="296" fill="#b2182b" font-family="Verdana" font-size="12">1,1</text>
	<text x="359" y="371" fill="#b2182b" font-family="Verdana" font-size="12">0,N</text>
</g>

<!-- Association POSSEDE -->
<g>
	<line x1="566" y1="228" x2="566" y2="354" stroke="#878787" stroke-width="2"/>
	<line x1="422" y1="354" x2="566" y2="354" stroke="#878787" stroke-width="2"/>
	<g>
		<path d="M584 329 a14 14 90 0 1 14 14 V354 h-64 V343 a14 14 90 0 1 14 -14" fill="#bababa" stroke="#bababa" stroke-width="0"/>
		<path d="M598 354 v11 a14 14 90 0 1 -14 14 H548 a14 14 90 0 1 -14 -14 V354 H64" fill="#e0e0e0" stroke="#e0e0e0" stroke-width="0"/>
		<rect x="534" y="329" width="64" height="50" fill="none" rx="14" stroke="#878787" stroke-width="2"/>
		<line x1="534" y1="354" x2="598" y2="354" stroke="#878787" stroke-width="1"/>
		<text x="541" y="346.75" fill="#000000" font-family="Verdana" font-size="12">Possède</text>
	</g>
	<text x="571" y="321" fill="#b2182b" font-family="Verdana" font-size="12">1,N</text>
	<text x="463" y="371" fill="#b2182b" font-family="Verdana" font-size="12">1,1</text>
</g>

<!-- Entity PAIEMENT -->
<g>
	<g>
		<rect x="9" y="17" width="150" height="25" fill="#f4a582" stroke="none" stroke-width="0" opacity="1"/>
		<rect x="9" y="42" width="150" height="77" fill="#fddbc7" stroke="none" stroke-width="0" opacity="1"/>
		<rect x="9" y="17" width="150" height="102" fill="none" stroke="#d6604d" stroke-width="2" opacity="1"/>
		<line x1="9" y1="42" x2="159" y2="42" stroke="#d6604d" stroke-width="1"/>
	</g>
	<text x="56" y="34.75" fill="#000000" font-family="Verdana" font-size="12">Paiement</text>
	<text x="14" y="59.8" fill="#000000" font-family="Verdana" font-size="12">id_Paiement</text>
	<line x1="14" y1="62" x2="89" y2="62" stroke="#000000" stroke-width="1"/>
	<text x="14" y="76.8" fill="#000000" font-family="Verdana" font-size="12">montant</text>
	<text x="14" y="93.8" fill="#000000" font-family="Verdana" font-size="12">date_paiement</text>
	<text x="14" y="110.8" fill="#000000" font-family="Verdana" font-size="12">mode_paiement_stripe</text>
</g>

<!-- Entity AVIS -->
<g>
	<g>
		<rect x="331" y="9" width="182" height="25" fill="#f4a582" stroke="none" stroke-width="0" opacity="1"/>
		<rect x="331" y="34" width="182" height="93" fill="#fddbc7" stroke="none" stroke-width="0" opacity="1"/>
		<rect x="331" y="9" width="182" height="118" fill="none" stroke="#d6604d" stroke-width="2" opacity="1"/>
		<line x1="331" y1="34" x2="513" y2="34" stroke="#d6604d" stroke-width="1"/>
	</g>
	<text x="409" y="26.75" fill="#000000" font-family="Verdana" font-size="12">Avis</text>
	<text x="336" y="51.8" fill="#000000" font-family="Verdana" font-size="12">id_Avis</text>
	<line x1="336" y1="54" x2="380" y2="54" stroke="#000000" stroke-width="1"/>
	<text x="336" y="68.8" fill="#000000" font-family="Verdana" font-size="12">note_étoiles_ou_score_sur5</text>
	<text x="336" y="85.8" fill="#000000" font-family="Verdana" font-size="12">commentaire</text>
	<text x="336" y="102.8" fill="#000000" font-family="Verdana" font-size="12">date_avis</text>
	<text x="336" y="119.8" fill="#000000" font-family="Verdana" font-size="12">auteur_avis</text>
</g>

<!-- Entity RESERVATION -->
<g>
	<g>
		<rect x="194" y="177" width="102" height="25" fill="#f4a582" stroke="none" stroke-width="0" opacity="1"/>
		<rect x="194" y="202" width="102" height="77" fill="#fddbc7" stroke="none" stroke-width="0" opacity="1"/>
		<rect x="194" y="177" width="102" height="102" fill="none" stroke="#d6604d" stroke-width="2" opacity="1"/>
		<line x1="194" y1="202" x2="296" y2="202" stroke="#d6604d" stroke-width="1"/>
	</g>
	<text x="209" y="194.75" fill="#000000" font-family="Verdana" font-size="12">Réservation</text>
	<text x="199" y="219.8" fill="#000000" font-family="Verdana" font-size="12">id_Réservation</text>
	<line x1="199" y1="222" x2="290" y2="222" stroke="#000000" stroke-width="1"/>
	<text x="199" y="236.8" fill="#000000" font-family="Verdana" font-size="12">date_début</text>
	<text x="199" y="253.8" fill="#000000" font-family="Verdana" font-size="12">date_fin</text>
	<text x="199" y="270.8" fill="#000000" font-family="Verdana" font-size="12">statut</text>
</g>

<!-- Entity UTILISATEUR -->
<g>
	<g>
		<rect x="517" y="152" width="98" height="25" fill="#f4a582" stroke="none" stroke-width="0" opacity="1"/>
		<rect x="517" y="177" width="98" height="127" fill="#fddbc7" stroke="none" stroke-width="0" opacity="1"/>
		<rect x="517" y="152" width="98" height="152" fill="none" stroke="#d6604d" stroke-width="2" opacity="1"/>
		<line x1="517" y1="177" x2="615" y2="177" stroke="#d6604d" stroke-width="1"/>
	</g>
	<text x="535" y="169.75" fill="#000000" font-family="Verdana" font-size="12">Utilisateur</text>
	<text x="522" y="194.8" fill="#000000" font-family="Verdana" font-size="12">id_Utilisateur</text>
	<line x1="522" y1="197" x2="603" y2="197" stroke="#000000" stroke-width="1"/>
	<text x="522" y="211.8" fill="#000000" font-family="Verdana" font-size="12">nom</text>
	<text x="522" y="228.8" fill="#000000" font-family="Verdana" font-size="12">prenom</text>
	<text x="522" y="245.8" fill="#000000" font-family="Verdana" font-size="12">Email</text>
	<text x="522" y="262.8" fill="#000000" font-family="Verdana" font-size="12">Mot_de_passe</text>
	<text x="522" y="279.8" fill="#000000" font-family="Verdana" font-size="12">telephone</text>
	<text x="522" y="296.8" fill="#000000" font-family="Verdana" font-size="12">Adresse</text>
</g>

<!-- Entity SERVICE -->
<g>
	<g>
		<rect x="26" y="312" width="116" height="25" fill="#f4a582" stroke="none" stroke-width="0" opacity="1"/>
		<rect x="26" y="337" width="116" height="59" fill="#fddbc7" stroke="none" stroke-width="0" opacity="1"/>
		<rect x="26" y="312" width="116" height="84" fill="none" stroke="#d6604d" stroke-width="2" opacity="1"/>
		<line x1="26" y1="337" x2="142" y2="337" stroke="#d6604d" stroke-width="1"/>
	</g>
	<text x="62" y="329.75" fill="#000000" font-family="Verdana" font-size="12">Service</text>
	<text x="31" y="354.8" fill="#000000" font-family="Verdana" font-size="12">id_Service</text>
	<line x1="31" y1="357" x2="95" y2="357" stroke="#000000" stroke-width="1"/>
	<text x="31" y="371.8" fill="#000000" font-family="Verdana" font-size="12">type_Reservation</text>
	<text x="31" y="388.8" fill="#000000" font-family="Verdana" font-size="12">tarif</text>
</g>

<!-- Entity ANIMAL -->
<g>
	<g>
		<rect x="386" y="278" width="72" height="25" fill="#f4a582" stroke="none" stroke-width="0" opacity="1"/>
		<rect x="386" y="303" width="72" height="127" fill="#fddbc7" stroke="none" stroke-width="0" opacity="1"/>
		<rect x="386" y="278" width="72" height="152" fill="none" stroke="#d6604d" stroke-width="2" opacity="1"/>
		<line x1="386" y1="303" x2="458" y2="303" stroke="#d6604d" stroke-width="1"/>
	</g>
	<text x="401" y="295.75" fill="#000000" font-family="Verdana" font-size="12">Animal</text>
	<text x="391" y="320.8" fill="#000000" font-family="Verdana" font-size="12">id_Animal</text>
	<line x1="391" y1="323" x2="452" y2="323" stroke="#000000" stroke-width="1"/>
	<text x="391" y="337.8" fill="#000000" font-family="Verdana" font-size="12">nom</text>
	<text x="391" y="354.8" fill="#000000" font-family="Verdana" font-size="12">type</text>
	<text x="391" y="371.8" fill="#000000" font-family="Verdana" font-size="12">race</text>
	<text x="391" y="388.8" fill="#000000" font-family="Verdana" font-size="12">age</text>
	<text x="391" y="405.8" fill="#000000" font-family="Verdana" font-size="12">poids</text>
	<text x="391" y="422.8" fill="#000000" font-family="Verdana" font-size="12">reference</text>
</g>
</svg>